<svg width="134px" height="188px" viewBox="0.00 0.00 134.00 188.00" xmlns="http://www.w3.org/2000/svg" xmlns:xlink="http://www.w3.org/1999/xlink">
<g id="graph0" class="graph" transform="scale(1.0 1.0) rotate(0.0) translate(4.0 184.0)">
<polygon fill="white" stroke="transparent" points="-4,4 -4,-184 130,-184 130,4 -4,4"></polygon>
<!-- d -->
<g id="node1" class="node">
<title>d</title>
<ellipse fill="none" stroke="black" cx="99" cy="-18" rx="27" ry="18"></ellipse>
<text text-anchor="middle" x="99" y="-14.3" font-family="Times-Roman" font-size="14.00">d</text>
</g>
<!-- b -->
<g id="node2" class="node">
<title>b</title>
<ellipse fill="none" stroke="black" cx="27" cy="-90" rx="27" ry="18"></ellipse>
<text text-anchor="middle" x="27" y="-86.3" font-family="Times-Roman" font-size="14.00">b</text>
</g>
<!-- e -->
<g id="node3" class="node">
<title>e</title>
<ellipse fill="none" stroke="black" cx="27" cy="-18" rx="27" ry="18"></ellipse>
<text text-anchor="middle" x="27" y="-14.3" font-family="Times-Roman" font-size="14.00">e</text>
</g>
<!-- b&#45;&#45;e -->
<g id="edge1" class="edge">
<title>b--e</title>
<path fill="none" stroke="black" d="M27,-71.7C27,-60.85 27,-46.92 27,-36.1"></path>
</g>
<!-- c -->
<g id="node4" class="node">
<title>c</title>
<ellipse fill="none" stroke="black" cx="99" cy="-90" rx="27" ry="18"></ellipse>
<text text-anchor="middle" x="99" y="-86.3" font-family="Times-Roman" font-size="14.00">c</text>
</g>
<!-- c&#45;&#45;d -->
<g id="edge2" class="edge">
<title>c--d</title>
<path fill="none" stroke="black" d="M99,-71.7C99,-60.85 99,-46.92 99,-36.1"></path>
</g>
<!-- c&#45;&#45;e -->
<g id="edge3" class="edge">
<title>c--e</title>
<path fill="none" stroke="black" d="M84.43,-74.83C72.02,-62.77 54.27,-45.51 41.8,-33.38"></path>
</g>
<!-- a -->
<g id="node5" class="node">
<title>a</title>
<ellipse fill="none" stroke="black" cx="63" cy="-162" rx="27" ry="18"></ellipse>
<text text-anchor="middle" x="63" y="-158.3" font-family="Times-Roman" font-size="14.00">a</text>
</g>
<!-- a&#45;&#45;b -->
<g id="edge5" class="edge">
<title>a--b</title>
<path fill="none" stroke="black" d="M54.65,-144.76C48.83,-133.46 41.11,-118.44 35.3,-107.15"></path>
</g>
<!-- a&#45;&#45;c -->
<g id="edge4" class="edge">
<title>a--c</title>
<path fill="none" stroke="black" d="M71.35,-144.76C77.17,-133.46 84.89,-118.44 90.7,-107.15"></path>
</g>
</g>
</svg>
